<?xml version="1.0" encoding="UTF-8"?>
<svg id="Layer_1" xmlns="http://www.w3.org/2000/svg" version="1.1" viewBox="0 0 122.2 13">
  <!-- Generator: Adobe Illustrator 30.3.0, SVG Export Plug-In . SVG Version: 2.1.3 Build 182)  -->
  <defs>
    <style>
      .st0 {
        fill: #192640;
      }

      .st1 {
        fill: #af7d38;
      }
    </style>
  </defs>
  <polygon class="st0" points="122.2 6.4 121.2 6.4 121.2 1 115.8 1 115.8 0 122.2 0 122.2 6.4"/>
  <g>
    <path class="st1" d="M2.2,11.7c0,.2,0,.4,0,.5s.2.2.3.3c.2,0,.4,0,.7,0s0,0,0,0,0,0,0,0c-.3,0-.5,0-.8,0-.3,0-.6,0-1,0s-.6,0-.8,0c-.3,0-.5,0-.7,0s0,0,0,0,0,0,0,0c.2,0,.4,0,.6,0s.2-.1.2-.2c0-.1,0-.3,0-.5v-5.6c0-.2,0-.4,0-.5,0-.1-.1-.2-.2-.2s-.3,0-.6,0,0,0,0,0,0,0,0,0c.2,0,.4,0,.7,0,.3,0,.5,0,.8,0s.4,0,.8,0,.6,0,.9,0c.5,0,1,0,1.3.2.4.1.7.3.9.6s.4.7.4,1.1c0,.4,0,.8-.2,1.1-.1.3-.4.6-.6.8-.3.2-.5.4-.9.5-.3.1-.6.1-.9.1s-.2,0-.3,0c-.1,0-.2,0-.3,0,0,0,0,0,0,0,0,0,0,0,0,0,0,0,.1,0,.2,0,0,0,.1,0,.2,0,.2,0,.4,0,.6-.2.2-.1.3-.4.5-.7s.2-.7.2-1.1,0-.8-.2-1.1c-.1-.3-.3-.5-.5-.7-.2-.2-.5-.2-.9-.2s-.3,0-.3,0-.1.1-.2.2,0,.3,0,.5v5.5Z"/>
    <path class="st1" d="M14.2,12.6s0,0,0,0,0,0,0,0c-.2,0-.5,0-.8,0-.3,0-.5,0-.8,0s-.5,0-.7,0c-.2,0-.4,0-.7,0s0,0,0,0,0,0,0,0c.3,0,.5,0,.6-.2,0-.1,0-.4-.2-.8l-2.4-4.8.6-1-2.4,5.3c-.2.5-.2.9,0,1.1.2.3.5.4,1,.4s0,0,0,0,0,0,0,0c-.2,0-.5,0-.7,0-.2,0-.5,0-.8,0s-.6,0-.8,0-.4,0-.7,0,0,0,0,0,0,0,0,0c.2,0,.4,0,.6-.1.2,0,.3-.3.5-.5.2-.2.3-.6.5-1l2.6-5.7s0,0,.1,0c0,0,0,0,.1,0l3,5.9c.2.4.4.7.5.9.1.2.3.4.4.5.1,0,.2.1.4.1ZM7.6,10l.2-.3h3.5v.3c0,0-3.6,0-3.6,0Z"/>
    <path class="st1" d="M17.9,5.2c.7,0,1.3.1,1.7.4s.6.6.6,1.1-.1.9-.4,1.3c-.3.4-.6.6-1,.8-.4.2-.8.3-1.3.3h-.3c-.1,0-.2,0-.3,0v2.7c0,.2,0,.4,0,.5,0,.1.1.2.2.2s.3,0,.6,0,0,0,0,0,0,0,0,0c-.2,0-.4,0-.7,0-.3,0-.5,0-.8,0s-.6,0-.8,0c-.3,0-.5,0-.7,0s0,0,0,0,0,0,0,0c.2,0,.4,0,.6,0s.2-.1.2-.2c0-.1,0-.3,0-.5v-5.6c0-.2,0-.4,0-.5,0-.1-.1-.2-.2-.2-.1,0-.3,0-.6,0s0,0,0,0,0,0,0,0c.2,0,.4,0,.7,0,.3,0,.5,0,.8,0s.6,0,.9,0c.3,0,.6,0,.9,0ZM18.9,7.2c0-.5,0-.8-.1-1.1,0-.2-.2-.4-.4-.5-.2,0-.4-.1-.6-.1-.3,0-.5,0-.7.2-.1.1-.2.3-.2.6v2.5c.1,0,.2,0,.4,0s.2,0,.3,0c.5,0,.8-.1,1-.4.2-.3.3-.7.3-1.3ZM20.5,12.7c-.1,0-.3-.1-.6-.5-.3-.3-.6-.7-1-1.3s-.8-1.2-1.3-2l1.1-.3c.6,1,1.2,1.7,1.6,2.3.5.6.9,1,1.2,1.3.4.3.7.4,1,.4s0,0,0,0,0,0,0,0h-2.1Z"/>
    <path class="st1" d="M24.2,5.5c-.5,0-.9.2-1.2.5-.3.3-.6.8-.8,1.4,0,0,0,0,0,0s0,0,0,0c0-.1,0-.3,0-.5s0-.4,0-.7c0-.2,0-.5,0-.7,0-.2,0-.4,0-.6s0,0,0,0,0,0,0,0c0,0,0,.1.1.2,0,0,.2,0,.3,0,.1,0,.2,0,.3,0,.7,0,1.5,0,2.4,0s1,0,1.3,0c.3,0,.7,0,1,0s.5,0,.7,0c.1,0,.2-.1.3-.2,0,0,0,0,0,0s0,0,0,0c0,.1,0,.3,0,.5s0,.5,0,.7c0,.3,0,.5,0,.7,0,.2,0,.4,0,.5s0,0,0,0,0,0,0,0c-.1-.6-.3-1.1-.7-1.4-.3-.3-.7-.5-1.2-.5s-.3,0-.4,0c0,0-.1.1-.2.2,0,.1,0,.2,0,.4v5.5c0,.2,0,.4,0,.5,0,.1.1.2.3.2.1,0,.4,0,.6,0s0,0,0,0,0,0,0,0c-.2,0-.5,0-.8,0-.3,0-.6,0-.9,0s-.6,0-.9,0c-.3,0-.5,0-.8,0s0,0,0,0,0,0,0,0c.3,0,.5,0,.6,0,.1,0,.2-.1.3-.2,0-.1,0-.3,0-.5v-5.6c0-.2,0-.3,0-.4,0-.1,0-.2-.2-.2,0,0-.2,0-.3,0Z"/>
    <path class="st1" d="M36.9,12.9s0,0,0,0c0,0,0,0,0,0l-5.9-6.7c-.3-.3-.5-.5-.7-.7-.2-.1-.4-.2-.6-.2s0,0,0,0,0,0,0,0c.2,0,.3,0,.5,0,.2,0,.3,0,.5,0,.3,0,.5,0,.8,0,.2,0,.4,0,.5,0s.2,0,.2.1c0,0,.2.3.4.5l4.4,5.1v2ZM30.8,11.2v-5.7h.4v5.7c0,.4,0,.8.3,1,.2.2.4.4.7.4s0,0,0,0,0,0,0,0c-.2,0-.4,0-.5,0-.2,0-.4,0-.6,0s-.5,0-.7,0c-.2,0-.4,0-.6,0s0,0,0,0,0,0,0,0c.4,0,.6-.1.8-.4.2-.2.3-.6.3-1ZM36.9,6.8v6.1l-.3-.4v-5.8c0-.4,0-.8-.3-1-.2-.3-.4-.4-.7-.4s0,0,0,0,0,0,0,0c.2,0,.4,0,.5,0,.2,0,.4,0,.6,0s.4,0,.6,0c.2,0,.4,0,.6,0s0,0,0,0,0,0,0,0c-.3,0-.6.1-.8.4s-.3.6-.3,1Z"/>
    <path class="st1" d="M43.9,12.7h-5.3s0,0,0,0,0,0,0,0c.2,0,.4,0,.6,0s.2-.1.2-.2c0-.1,0-.3,0-.5v-5.6c0-.2,0-.4,0-.5,0-.1-.1-.2-.2-.2s-.3,0-.6,0,0,0,0,0,0,0,0,0h5.1c0,0,.1,0,.1.1v1.6s0,0,0,0c0,0,0,0,0,0-.1-.5-.3-.8-.6-1-.3-.2-.7-.3-1.2-.3h-.4c-.2,0-.3,0-.4,0s-.2.1-.2.2,0,.2,0,.4v5.5c0,.2,0,.3,0,.4,0,.1.1.2.2.2,0,0,.2,0,.3,0h.4c.6,0,1.1-.1,1.5-.4.4-.3.7-.7.8-1.2,0,0,0,0,0,0,0,0,0,0,0,0,0,.2,0,.5,0,.8,0,.3,0,.6,0,.9s0,.2-.2.2ZM43.2,10.1c0-.3-.1-.6-.4-.8-.2-.2-.6-.3-1.1-.3h-1.6v-.3h1.6c.5,0,.8,0,1.1-.2.2-.2.4-.4.4-.7s0,0,0,0,0,0,0,0c0,.3,0,.5,0,.6s0,.3,0,.5,0,.4,0,.6,0,.4,0,.6,0,0,0,0,0,0,0,0Z"/>
    <path class="st1" d="M48.5,5.2c.7,0,1.3.1,1.7.4s.6.6.6,1.1-.1.9-.4,1.3c-.3.4-.6.6-1,.8-.4.2-.8.3-1.3.3h-.3c-.1,0-.2,0-.3,0v2.7c0,.2,0,.4,0,.5,0,.1.1.2.2.2s.3,0,.6,0,0,0,0,0,0,0,0,0c-.2,0-.4,0-.7,0-.3,0-.5,0-.8,0s-.6,0-.8,0c-.3,0-.5,0-.7,0s0,0,0,0,0,0,0,0c.2,0,.4,0,.6,0s.2-.1.2-.2c0-.1,0-.3,0-.5v-5.6c0-.2,0-.4,0-.5,0-.1-.1-.2-.2-.2-.1,0-.3,0-.6,0s0,0,0,0,0,0,0,0c.2,0,.4,0,.7,0,.3,0,.5,0,.8,0s.6,0,.9,0c.3,0,.6,0,.9,0ZM49.4,7.2c0-.5,0-.8-.1-1.1,0-.2-.2-.4-.4-.5-.2,0-.4-.1-.6-.1-.3,0-.5,0-.7.2-.1.1-.2.3-.2.6v2.5c.1,0,.2,0,.4,0s.2,0,.3,0c.5,0,.8-.1,1-.4.2-.3.3-.7.3-1.3ZM51.1,12.7c-.1,0-.3-.1-.6-.5-.3-.3-.6-.7-1-1.3s-.8-1.2-1.3-2l1.1-.3c.6,1,1.2,1.7,1.6,2.3.5.6.9,1,1.2,1.3.4.3.7.4,1,.4s0,0,0,0,0,0,0,0h-2.1Z"/>
    <path class="st1" d="M55,6.4c0,.3,0,.6.2.8.2.2.4.4.6.6s.5.4.8.6c.3.2.6.4.9.6s.5.5.7.7c.2.3.3.6.3,1s-.1.8-.3,1.1-.5.6-.9.8c-.4.2-.8.3-1.3.3s-.5,0-.8,0c-.3,0-.5-.1-.7-.2-.2,0-.4-.1-.5-.2,0,0,0,0,0,0,0,0,0,0,0-.1v-1.9s0,0,0,0c0,0,0,0,0,0,.1.2.3.5.4.8s.3.5.5.8c.2.2.4.4.6.6.2.1.5.2.8.2s.4,0,.5,0,.3-.2.4-.3c.1-.2.2-.4.2-.7s0-.7-.3-1c-.2-.3-.4-.5-.6-.7-.3-.2-.5-.4-.8-.6-.3-.2-.5-.4-.8-.6-.3-.2-.5-.4-.6-.7-.2-.3-.2-.6-.2-.9s.1-.8.4-1.1c.3-.3.6-.5,1-.6.4-.1.8-.2,1.2-.2s.6,0,.9,0c.3,0,.5.1.7.2,0,0,.1,0,.2.1,0,0,0,0,0,.1v1.8s0,0,0,0c0,0,0,0,0,0,0,0-.1-.3-.2-.5,0-.2-.2-.5-.3-.7-.1-.2-.3-.4-.6-.6-.2-.2-.5-.3-.8-.3s-.4,0-.5.1c-.2,0-.3.2-.4.4-.1.2-.1.4-.1.6Z"/>
    <path class="st0" d="M62.3,10.8s0,0,0-.1,0-.2,0-.3c0,0,0-.1,0-.1h4s0,0,0,.1c0,0,0,.2,0,.3,0,.1,0,.1,0,.1h-4ZM64.5,12.4s0,0-.1,0c0,0-.2,0-.3,0-.1,0-.1,0-.1,0v-4s0,0,.1,0,.2,0,.3,0c0,0,.1,0,.1,0v3.9Z"/>
    <path class="st0" d="M74.6,5.1c.2,0,.5,0,.8,0,.3,0,.5,0,.7.1.2,0,.4.1.6.2,0,0,.1,0,.1,0,0,0,0,0,0,.2l.2,1.7s0,0,0,0,0,0,0,0c-.2-.6-.5-1.1-1-1.5s-.9-.5-1.5-.5-1,.1-1.5.4c-.4.3-.8.7-1,1.2-.2.5-.4,1.2-.4,1.9s0,1.1.2,1.5c.1.5.3.8.6,1.2.3.3.6.6.9.7.4.2.8.3,1.2.3s1-.2,1.4-.5.7-.8,1.1-1.5c0,0,0,0,0,0,0,0,0,0,0,0l-.2,1.5c0,0,0,.2,0,.2,0,0,0,0-.1,0-.4.1-.8.2-1.1.3-.4,0-.7,0-1.1,0-.9,0-1.6-.2-2.3-.5-.7-.3-1.2-.8-1.6-1.4-.4-.6-.6-1.2-.6-2s.1-1.1.3-1.6c.2-.5.5-.9,1-1.2.4-.3.9-.6,1.4-.8.6-.2,1.1-.3,1.8-.3Z"/>
    <path class="st0" d="M86.2,12.6s0,0,0,0,0,0,0,0c-.2,0-.5,0-.8,0-.3,0-.5,0-.8,0s-.5,0-.7,0c-.2,0-.4,0-.7,0s0,0,0,0,0,0,0,0c.3,0,.5,0,.6-.2,0-.1,0-.4-.2-.8l-2.4-4.8.6-1-2.4,5.3c-.2.5-.2.9,0,1.1.2.3.5.4,1,.4s0,0,0,0,0,0,0,0c-.2,0-.5,0-.7,0-.2,0-.5,0-.8,0s-.6,0-.8,0-.4,0-.7,0,0,0,0,0,0,0,0,0c.2,0,.4,0,.6-.1.2,0,.3-.3.5-.5.2-.2.3-.6.5-1l2.6-5.7s0,0,.1,0c0,0,0,0,.1,0l3,5.9c.2.4.4.7.5.9.1.2.3.4.4.5.1,0,.2.1.4.1ZM79.7,10l.2-.3h3.5v.3c0,0-3.6,0-3.6,0Z"/>
    <path class="st0" d="M88.8,11.7c0,.2,0,.4,0,.5s.2.2.3.3c.2,0,.4,0,.7,0s0,0,0,0,0,0,0,0c-.3,0-.5,0-.8,0-.3,0-.6,0-1,0s-.6,0-.8,0c-.3,0-.5,0-.7,0s0,0,0,0,0,0,0,0c.2,0,.4,0,.6,0s.2-.1.2-.2c0-.1,0-.3,0-.5v-5.6c0-.2,0-.4,0-.5,0-.1-.1-.2-.2-.2s-.3,0-.6,0,0,0,0,0,0,0,0,0c.2,0,.4,0,.7,0,.3,0,.5,0,.8,0s.4,0,.8,0,.6,0,.9,0c.5,0,1,0,1.3.2.4.1.7.3.9.6s.4.7.4,1.1c0,.4,0,.8-.2,1.1-.1.3-.4.6-.6.8-.3.2-.5.4-.9.5-.3.1-.6.1-.9.1s-.2,0-.3,0c-.1,0-.2,0-.3,0,0,0,0,0,0,0,0,0,0,0,0,0,0,0,.1,0,.2,0,0,0,.1,0,.2,0,.2,0,.4,0,.6-.2.2-.1.3-.4.5-.7s.2-.7.2-1.1,0-.8-.2-1.1c-.1-.3-.3-.5-.5-.7-.2-.2-.5-.2-.9-.2s-.3,0-.3,0-.1.1-.2.2,0,.3,0,.5v5.5Z"/>
    <path class="st0" d="M95.6,11.8c0,.2,0,.4,0,.5,0,.1.1.2.2.2s.3,0,.6,0,0,0,0,0,0,0,0,0c-.2,0-.4,0-.7,0-.3,0-.5,0-.8,0s-.6,0-.8,0c-.3,0-.5,0-.7,0s0,0,0,0,0,0,0,0c.2,0,.4,0,.6,0s.2-.1.3-.2c0-.1,0-.3,0-.5v-5.6c0-.2,0-.4,0-.5,0-.1-.1-.2-.3-.2s-.3,0-.6,0,0,0,0,0,0,0,0,0c.2,0,.4,0,.7,0,.3,0,.5,0,.8,0s.6,0,.8,0c.3,0,.5,0,.7,0s0,0,0,0,0,0,0,0c-.2,0-.4,0-.5,0-.1,0-.2.1-.2.3,0,.1,0,.3,0,.5v5.5Z"/>
    <path class="st0" d="M99.6,5.5c-.5,0-.9.2-1.2.5-.3.3-.6.8-.8,1.4,0,0,0,0,0,0s0,0,0,0c0-.1,0-.3,0-.5s0-.4,0-.7c0-.2,0-.5,0-.7,0-.2,0-.4,0-.6s0,0,0,0,0,0,0,0c0,0,0,.1.1.2,0,0,.2,0,.3,0,.1,0,.2,0,.3,0,.7,0,1.5,0,2.4,0s1,0,1.3,0c.3,0,.7,0,1,0s.5,0,.7,0c.1,0,.2-.1.3-.2,0,0,0,0,0,0s0,0,0,0c0,.1,0,.3,0,.5s0,.5,0,.7c0,.3,0,.5,0,.7,0,.2,0,.4,0,.5s0,0,0,0,0,0,0,0c-.1-.6-.3-1.1-.7-1.4-.3-.3-.7-.5-1.2-.5s-.3,0-.4,0c0,0-.1.1-.2.2,0,.1,0,.2,0,.4v5.5c0,.2,0,.4,0,.5,0,.1.1.2.3.2.1,0,.4,0,.6,0s0,0,0,0,0,0,0,0c-.2,0-.5,0-.8,0-.3,0-.6,0-.9,0s-.6,0-.9,0c-.3,0-.5,0-.8,0s0,0,0,0,0,0,0,0c.3,0,.5,0,.6,0,.1,0,.2-.1.3-.2,0-.1,0-.3,0-.5v-5.6c0-.2,0-.3,0-.4,0-.1,0-.2-.2-.2,0,0-.2,0-.3,0Z"/>
    <path class="st0" d="M112.4,12.6s0,0,0,0,0,0,0,0c-.2,0-.5,0-.8,0-.3,0-.5,0-.8,0s-.5,0-.7,0c-.2,0-.4,0-.7,0s0,0,0,0,0,0,0,0c.3,0,.5,0,.6-.2,0-.1,0-.4-.2-.8l-2.4-4.8.6-1-2.4,5.3c-.2.5-.2.9,0,1.1.2.3.5.4,1,.4s0,0,0,0,0,0,0,0c-.2,0-.5,0-.7,0-.2,0-.5,0-.8,0s-.6,0-.8,0-.4,0-.7,0,0,0,0,0,0,0,0,0c.2,0,.4,0,.6-.1.2,0,.3-.3.5-.5.2-.2.3-.6.5-1l2.6-5.7s0,0,.1,0c0,0,0,0,.1,0l3,5.9c.2.4.4.7.5.9.1.2.3.4.4.5.1,0,.2.1.4.1ZM105.9,10l.2-.3h3.5v.3c0,0-3.6,0-3.6,0Z"/>
    <path class="st0" d="M115,6.2v5.5c0,.2,0,.3,0,.4,0,.1,0,.2.2.2.1,0,.2,0,.4,0h.4c.6,0,1.2-.2,1.6-.5s.8-.8.9-1.3c0,0,0,0,0,0,0,0,0,0,0,0,0,.3,0,.6,0,1,0,.4,0,.7,0,1s0,.2-.2.2h-5.7s0,0,0,0,0,0,0,0c.2,0,.4,0,.6,0s.2-.1.2-.2c0-.1,0-.3,0-.5v-5.6c0-.2,0-.4,0-.5,0-.1-.1-.2-.2-.2s-.3,0-.6,0,0,0,0,0,0,0,0,0c.2,0,.4,0,.7,0,.3,0,.5,0,.8,0s.6,0,.8,0c.3,0,.5,0,.7,0s0,0,0,0,0,0,0,0c-.2,0-.4,0-.5,0s-.2.1-.2.2c0,.1,0,.3,0,.5Z"/>
  </g>
</svg>