<?xml version="1.0" encoding="UTF-8"?>
<svg id="Layer_1" xmlns="http://www.w3.org/2000/svg" version="1.1" viewBox="0 0 143.6 13.5">
  <!-- Generator: Adobe Illustrator 30.3.0, SVG Export Plug-In . SVG Version: 2.1.3 Build 182)  -->
  <defs>
    <style>
      .st0 {
        fill: #fff;
      }
    </style>
  </defs>
  <g>
    <path class="st0" d="M0,13c.4,0,.7-.1.8-.2s.2-.4.2-.8v-5.3c0-.5,0-.7-.2-.9-.1-.1-.4-.2-.8-.2v-.3h3.9c1,0,1.8.2,2.3.5s.8.9.8,1.7-.1.8-.3,1.1-.6.6-1,.8c-.4.1-.7.2-1.1.3s-.9,0-1.6,0v2.2c0,.4,0,.7.2.9s.4.2.8.2v.3H0v-.3ZM4.4,9c.4-.2.6-.8.6-1.6s0-1-.3-1.3-.5-.5-1.1-.5-.4,0-.5,0-.2.2-.2.3v3.2c.7,0,1.2,0,1.4-.2Z"/>
    <path class="st0" d="M7.1,13c.3,0,.5-.2.7-.4.1-.2.3-.5.5-1l2.7-6.6h.3l2.7,6.3c.3.7.5,1.2.7,1.4s.4.3.6.3v.3h-3.9v-.3c.4,0,.6,0,.8,0s.2-.2.2-.4,0-.2,0-.4c0-.1,0-.2-.2-.4l-.3-.7h-2.7c-.2.5-.3.8-.3.9-.1.3-.2.5-.2.7s.1.3.3.4c.1,0,.3,0,.6,0v.3h-2.4v-.3ZM11.6,10.4l-1.2-2.8h-.1l-1.1,2.8h2.3Z"/>
    <path class="st0" d="M16.3,13c.4,0,.7,0,.8-.2s.2-.4.2-.9v-5.3c0-.5,0-.8-.3-.9-.1,0-.4-.2-.8-.2v-.3h3.9c.8,0,1.4,0,1.9.3,1,.3,1.4,1,1.4,1.8s-.3,1.2-.8,1.5c-.4.3-.8.5-1.2.5l2.5,3.4c0,0,.1.2.2.2s.2,0,.3,0v.3h-2.5l-2.8-3.8h0v2.3c0,.4,0,.7.2.9s.4.2.8.2v.3h-4.1v-.3ZM21,8.8c.3-.2.5-.7.5-1.5s0-.8-.2-1.1c-.2-.5-.6-.7-1.2-.7s-.5,0-.6.1-.1.2-.1.4v3.1c.8,0,1.3-.1,1.7-.3Z"/>
    <path class="st0" d="M25.3,5.2h7.2v2.4s-.3,0-.3,0c-.1-.9-.4-1.5-1-1.8-.3-.2-.8-.3-1.3-.3v6.3c0,.4,0,.7.2.9.2.1.5.2,1,.2v.3h-4.3v-.3c.5,0,.8,0,.9-.2.2-.1.2-.4.2-.9v-6.3c-.6,0-1,.1-1.3.3-.6.3-.9.9-1,1.8h-.3v-2.4Z"/>
    <path class="st0" d="M33.8,13c.4,0,.7,0,.9-.3s.2-.4.2-.7v-5.7c-.4-.4-.6-.7-.7-.7s-.2-.1-.4-.1v-.3h2.5l4.1,5h0v-3.5c0-.4,0-.7-.2-.9-.1-.2-.4-.3-.9-.3v-.3h2.6v.3c-.4,0-.6.1-.8.3s-.2.3-.2.7v7.1h-.3l-5.3-6.4h0v4.7c0,.4,0,.6.2.8.2.2.5.4,1,.4v.3h-2.7v-.3Z"/>
    <path class="st0" d="M43,13.3v-.3c.3,0,.6,0,.7-.1.2-.1.3-.4.3-.7v-5.8c0-.3-.1-.6-.3-.7-.1,0-.4-.1-.7-.1v-.3h6.9v2.4h-.3c-.2-.8-.4-1.3-.8-1.6s-1-.4-2-.4-.6,0-.7.1-.1.2-.1.5v2.8c.7,0,1.1-.1,1.4-.4s.4-.7.6-1.4h.3v4.1h-.3c0-.7-.3-1.2-.5-1.4s-.7-.4-1.4-.4v2.9c0,.3,0,.4.2.5s.4.1.8.1c.8,0,1.4-.1,1.9-.4s.9-.9,1.3-1.7h.3l-.5,2.5h-7Z"/>
    <path class="st0" d="M51.6,13c.4,0,.7,0,.8-.2s.2-.4.2-.9v-5.3c0-.5,0-.8-.3-.9-.1,0-.4-.2-.8-.2v-.3h3.9c.8,0,1.4,0,1.9.3,1,.3,1.4,1,1.4,1.8s-.3,1.2-.8,1.5c-.4.3-.8.5-1.2.5l2.5,3.4c0,0,.1.2.2.2s.2,0,.3,0v.3h-2.5l-2.8-3.8h0v2.3c0,.4,0,.7.2.9s.4.2.8.2v.3h-4.1v-.3ZM56.3,8.8c.3-.2.5-.7.5-1.5s0-.8-.2-1.1c-.2-.5-.6-.7-1.2-.7s-.5,0-.6.1-.1.2-.1.4v3.1c.8,0,1.3-.1,1.7-.3Z"/>
    <path class="st0" d="M61.1,10.5h.3c.2.9.5,1.5.9,2s.9.6,1.5.6.9-.1,1.1-.4c.2-.3.3-.6.3-.9s-.1-.7-.4-.9c-.2-.1-.5-.3-.9-.6l-.8-.4c-.8-.4-1.3-.8-1.6-1.1-.3-.4-.5-.8-.5-1.4s.2-1.1.6-1.6c.4-.5,1-.8,1.9-.8s.9,0,1.3.2c.4.1.6.2.7.2.1,0,.2,0,.3-.1s0-.2.1-.3h.4v2.6h-.3c-.2-.6-.4-1.1-.8-1.6s-.9-.7-1.4-.7-.7.1-.9.3c-.2.2-.3.5-.3.8s.1.7.3.9c.2.2.7.5,1.4.8l.9.4c.4.2.7.4.9.7.4.5.7,1,.7,1.7s-.2,1.2-.7,1.7-1.2.8-2.3.8-.5,0-.7,0c-.2,0-.5-.1-.7-.2h-.2c0-.1-.1-.1-.2-.1s0,0-.1,0c-.1,0-.2,0-.3.1,0,0,0,.2-.1.3h-.3v-3Z"/>
    <path class="st0" d="M71.9,10.8v-1.2h2.5v-2.5h1.2v2.5h2.5v1.2h-2.5v2.5h-1.2v-2.5h-2.5Z"/>
    <path class="st0" d="M88.8,5.3c.5.2.8.3.9.3.2,0,.3,0,.4-.2s.1-.2.2-.4h.3v2.8h-.3c-.3-.6-.6-1.1-.9-1.4-.6-.6-1.2-1-1.9-1s-1.4.3-1.7,1-.5,1.6-.5,2.8,0,1.6.3,2.1c.4,1,1.1,1.6,2.1,1.6s1.2-.2,1.7-.5c.3-.2.7-.5,1.1-1l.4.3c-.5.5-.9.9-1.2,1.1-.6.4-1.3.6-2.1.6-1.2,0-2.2-.4-3-1.1-.9-.8-1.3-1.8-1.3-3.1s.4-2.4,1.3-3.2c.8-.8,1.8-1.1,2.9-1.1s1,0,1.5.3Z"/>
    <path class="st0" d="M92.1,13c.3,0,.5-.2.7-.4.1-.2.3-.5.5-1l2.7-6.6h.3l2.7,6.3c.3.7.5,1.2.7,1.4s.4.3.6.3v.3h-3.9v-.3c.4,0,.6,0,.8,0s.2-.2.2-.4,0-.2,0-.4c0-.1,0-.2-.2-.4l-.3-.7h-2.7c-.2.5-.3.8-.3.9-.1.3-.2.5-.2.7s.1.3.3.4c.1,0,.3,0,.6,0v.3h-2.4v-.3ZM96.6,10.4l-1.2-2.8h-.1l-1.1,2.8h2.3Z"/>
    <path class="st0" d="M101.3,13c.4,0,.7-.1.8-.2s.2-.4.2-.8v-5.3c0-.5,0-.7-.2-.9-.1-.1-.4-.2-.8-.2v-.3h3.9c1,0,1.8.2,2.3.5s.8.9.8,1.7-.1.8-.3,1.1-.6.6-1,.8c-.4.1-.7.2-1.1.3s-.9,0-1.6,0v2.2c0,.4,0,.7.2.9s.4.2.8.2v.3h-4v-.3ZM105.7,9c.4-.2.6-.8.6-1.6s0-1-.3-1.3-.5-.5-1.1-.5-.4,0-.5,0-.2.2-.2.3v3.2c.7,0,1.2,0,1.4-.2Z"/>
    <path class="st0" d="M109.3,13c.3,0,.6,0,.7-.1.2-.1.4-.4.4-.7v-5.8c0-.4-.1-.6-.3-.7-.1,0-.4-.1-.8-.1v-.3h4.2v.3c-.4,0-.6,0-.8.1-.2.1-.4.4-.4.7v5.8c0,.3,0,.6.3.7s.5.2.8.2v.3h-4.2v-.3Z"/>
    <path class="st0" d="M114.7,5.2h7.2v2.4s-.3,0-.3,0c-.1-.9-.4-1.5-1-1.8-.3-.2-.8-.3-1.3-.3v6.3c0,.4,0,.7.2.9.2.1.5.2,1,.2v.3h-4.3v-.3c.5,0,.8,0,.9-.2.2-.1.2-.4.2-.9v-6.3c-.6,0-1,.1-1.3.3-.6.3-.9.9-1,1.8h-.3v-2.4Z"/>
    <path class="st0" d="M122.3,13c.3,0,.5-.2.7-.4.1-.2.3-.5.5-1l2.7-6.6h.3l2.7,6.3c.3.7.5,1.2.7,1.4s.4.3.6.3v.3h-3.9v-.3c.4,0,.6,0,.8,0s.2-.2.2-.4,0-.2,0-.4c0-.1,0-.2-.2-.4l-.3-.7h-2.7c-.2.5-.3.8-.3.9-.1.3-.2.5-.2.7s.1.3.3.4c.1,0,.3,0,.6,0v.3h-2.4v-.3ZM126.8,10.4l-1.2-2.8h-.1l-1.1,2.8h2.3Z"/>
    <path class="st0" d="M131.6,13c.3,0,.6,0,.7-.1.2-.1.4-.4.4-.7v-5.8c0-.3-.1-.6-.3-.7-.1,0-.4-.1-.7-.1v-.3h4.2v.3c-.5,0-.8,0-1,.2s-.2.4-.2.9v5.7c0,.3,0,.4.2.5s.4.1.8.1c.7,0,1.3-.2,1.8-.5s.9-.9,1.3-1.9h.4l-.5,2.7h-6.9v-.3Z"/>
  </g>
  <polygon class="st0" points="143.6 6.4 142.6 6.4 142.6 1 137.2 1 137.2 0 143.6 0 143.6 6.4"/>
</svg>